Coordinates
version=1
nRows=24
nColumns=24
inDegrees=yes

Units are S.I. units (second, meters, Newtons, ...)
Angles are in degrees.

endheader
time	pelvis_tilt	pelvis_list	pelvis_rotation	pelvis_tx	pelvis_ty	pelvis_tz	hip_flexion_r	hip_adduction_r	hip_rotation_r	knee_angle_r	ankle_angle_r	subtalar_angle_r	mtp_angle_r	hip_flexion_l	hip_adduction_l	hip_rotation_l	knee_angle_l	ankle_angle_l	subtalar_angle_l	mtp_angle_l	lumbar_extension	lumbar_bending	lumbar_rotation
      4.66000000	     93.98381088	     20.02491671	    -93.99590720	      0.35666486	      0.29012485	      1.01728583	      0.08693263	    -13.47394508	      0.67294709	    -54.43090757	    -33.80571384	     -1.74545602	    -25.17324631	     -9.57718922	    -15.84919341	    -10.50378034	    -59.51240534	    -24.57828135	     -0.14557499	     73.45799169	      0.00000000	      0.00000000	      0.00000000
      4.67000000	     93.98421395	     20.02175752	    -93.99781340	      0.35665943	      0.29012312	      1.01726783	      0.08731136	    -13.47201958	      0.66619450	    -54.41091285	    -33.80675586	     -1.74545602	    -25.17324631	     -9.57836632	    -15.84953875	    -10.50046556	    -59.51142591	    -24.58628943	     -0.14557499	     73.45799169	      0.00000000	      0.00000000	      0.00000000
      4.68000000	     93.98491336	     20.01875102	    -94.00036334	      0.35665308	      0.29011880	      1.01725067	      0.08826982	    -13.47120842	      0.66153433	    -54.39203393	    -33.80391569	     -1.74545602	    -25.17324631	     -9.57837167	    -15.84869453	    -10.49777552	    -59.51117346	    -24.59222217	     -0.14557499	     73.45799169	      0.00000000	      0.00000000	      0.00000000
      4.69000000	     93.98595676	     20.01611089	    -94.00334119	      0.35664691	      0.29011103	      1.01724201	      0.08933639	    -13.47147348	      0.65895207	    -54.37422765	    -33.79751144	     -1.74545602	    -25.17324631	     -9.57774067	    -15.84671597	    -10.49612337	    -59.51124549	    -24.59583385	     -0.14557499	     73.45799169	      0.00000000	      0.00000000	      0.00000000
      4.70000000	     93.98726821	     20.01383567	    -94.00654495	      0.35664062	      0.29010130	      1.01724328	      0.09015220	    -13.47247571	      0.65797352	    -54.35745973	    -33.78866887	     -1.74545602	    -25.17324631	     -9.57710719	    -15.84372145	    -10.49579381	    -59.51104128	    -24.59749357	     -0.14557499	     73.45799169	      0.00000000	      0.00000000	      0.00000000
      4.71000000	     93.98872764	     20.01176294	    -94.00977179	      0.35663571	      0.29009282	      1.01724945	      0.09051406	    -13.47373938	      0.65795347	    -54.34173798	    -33.77894933	     -1.74545602	    -25.17324631	     -9.57699449	    -15.83997716	    -10.49688517	    -59.50997275	    -24.59803469	     -0.14557499	     73.45799169	      0.00000000	      0.00000000	      0.00000000
      4.72000000	     93.99018304	     20.00971722	    -94.01266418	      0.35663439	      0.29008924	      1.01725435	      0.09039875	    -13.47488881	      0.65846520	    -54.32697647	    -33.76980791	     -1.74545602	    -25.17324631	     -9.57767726	    -15.83578038	    -10.49925436	    -59.50769702	    -24.59841857	     -0.14557499	     73.45799169	      0.00000000	      0.00000000	      0.00000000
      4.73000000	     93.99145344	     20.00765855	    -94.01468013	      0.35663583	      0.29009299	      1.01725622	      0.08993333	    -13.47594810	      0.65960961	    -54.31285702	    -33.76211301	     -1.74545602	    -25.17324631	     -9.57914557	    -15.83141009	    -10.50244943	    -59.50426740	    -24.59937128	     -0.14557499	     73.45799169	      0.00000000	      0.00000000	      0.00000000
      4.74000000	     93.99240425	     20.00571654	    -94.01540667	      0.35663682	      0.29010414	      1.01725622	      0.08921634	    -13.47738104	      0.66192370	    -54.29891943	    -33.75597169	     -1.74545602	    -25.17324631	     -9.58107266	    -15.82716466	    -10.50577164	    -59.50008733	    -24.60116624	     -0.14557499	     73.45799169	      0.00000000	      0.00000000	      0.00000000
      4.75000000	     93.99300592	     20.00402889	    -94.01506259	      0.35663526	      0.29011688	      1.01725536	      0.08805064	    -13.47957455	      0.66577815	    -54.28491753	    -33.75093512	     -1.74545602	    -25.17324631	     -9.58272169	    -15.82314892	    -10.50863643	    -59.49567617	    -24.60361126	     -0.14557499	     73.45799169	      0.00000000	      0.00000000	      0.00000000
      4.76000000	     93.99339630	     20.00261079	    -94.01457087	      0.35663140	      0.29012465	      1.01725279	      0.08602291	    -13.48233947	      0.67082616	    -54.27110662	    -33.74636869	     -1.74545602	    -25.17324631	     -9.58328594	    -15.81915797	    -10.51094711	    -59.49141418	    -24.60619039	     -0.14557499	     73.45799169	      0.00000000	      0.00000000	      0.00000000
      4.77000000	     93.99378174	     20.00128014	    -94.01487832	      0.35662611	      0.29012630	      1.01725192	      0.08296987	    -13.48514327	      0.67615774	    -54.25818363	    -33.74171383	     -1.74545602	    -25.17324631	     -9.58256689	    -15.81493758	    -10.51314672	    -59.48740366	    -24.60826462	     -0.14557499	     73.45799169	      0.00000000	      0.00000000	      0.00000000
      4.78000000	     93.99426367	     19.99975735	    -94.01618182	      0.35661959	      0.29012325	      1.01725988	      0.07914592	    -13.48762033	      0.68092987	    -54.24701183	    -33.73660859	     -1.74545602	    -25.17324631	     -9.58134528	    -15.81043741	    -10.51599405	    -59.48353271	    -24.60925054	     -0.14557499	     73.45799169	      0.00000000	      0.00000000	      0.00000000
      4.79000000	     93.99482304	     19.99790291	    -94.01784898	      0.35661249	      0.29011684	      1.01727198	      0.07483998	    -13.48973529	      0.68486247	    -54.23832215	    -33.73096192	     -1.74545602	    -25.17324631	     -9.58114263	    -15.80585656	    -10.52019522	    -59.47968782	    -24.60873248	     -0.14557499	     73.45799169	      0.00000000	      0.00000000	      0.00000000
      4.80000000	     93.99531637	     19.99553319	    -94.01916492	      0.35660628	      0.29010821	      1.01727453	      0.06988328	    -13.49166874	      0.68831227	    -54.23248773	    -33.72503050	     -1.74545602	    -25.17324631	     -9.58328173	    -15.80159593	    -10.52600523	    -59.47585611	    -24.60650006	     -0.14557499	     73.45799169	      0.00000000	      0.00000000	      0.00000000
      4.81000000	     93.99548276	     19.99210531	    -94.02006443	      0.35660246	      0.29010020	      1.01726619	      0.06360494	    -13.49366694	      0.69194852	    -54.22943496	    -33.71947254	     -1.74545602	    -25.17324631	     -9.58811008	    -15.79815472	    -10.53303608	    -59.47211232	    -24.60254383	     -0.14557499	     73.45799169	      0.00000000	      0.00000000	      0.00000000
      4.82000000	     93.99505556	     19.98708491	    -94.02101710	      0.35660135	      0.29009613	      1.01725876	      0.05525882	    -13.49593016	      0.69625661	    -54.22875167	    -33.71531142	     -1.74545602	    -25.17324631	     -9.59526359	    -15.79585393	    -10.54045724	    -59.46869335	    -24.59705443	     -0.14557499	     73.45799169	      0.00000000	      0.00000000	      0.00000000
      4.83000000	     93.99394755	     19.98053279	    -94.02244520	      0.35660208	      0.29009389	      1.01725851	      0.04455543	    -13.49847145	      0.70113232	    -54.22996540	    -33.71376281	     -1.74545602	    -25.17324631	     -9.60433167	    -15.79453503	    -10.54744063	    -59.46603045	    -24.59042967	     -0.14557499	     73.45799169	      0.00000000	      0.00000000	      0.00000000
      4.84000000	     93.99239290	     19.97296512	    -94.02447659	      0.35660400	      0.29008691	      1.01726334	      0.03203964	    -13.50104604	      0.70583145	    -54.23282422	    -33.71591946	     -1.74545602	    -25.17324631	     -9.61494311	    -15.79362998	    -10.55346882	    -59.46452654	    -24.58326467	     -0.14557499	     73.45799169	      0.00000000	      0.00000000	      0.00000000
      4.85000000	     93.99087541	     19.96490915	    -94.02710300	      0.35660622	      0.29007310	      1.01727104	      0.01898628	    -13.50334628	      0.70940398	    -54.23746369	    -33.72236764	     -1.74545602	    -25.17324631	     -9.62639245	    -15.79256838	    -10.55832776	    -59.46425914	    -24.57630364	     -0.14557499	     73.45799169	      0.00000000	      0.00000000	      0.00000000
      4.86000000	     93.98986808	     19.95689085	    -94.03027143	      0.35660764	      0.29005817	      1.01727820	      0.00685085	    -13.50536729	      0.71136716	    -54.24437502	    -33.73287964	     -1.74545602	    -25.17324631	     -9.63749099	    -15.79110095	    -10.56194798	    -59.46491563	    -24.57034013	     -0.14557499	     73.45799169	      0.00000000	      0.00000000	      0.00000000
      4.87000000	     93.98959436	     19.94955157	    -94.03371517	      0.35660879	      0.29004748	      1.01728071	     -0.00311594	    -13.50761543	      0.71212854	    -54.25409712	    -33.74631236	     -1.74545602	    -25.17324631	     -9.64689316	    -15.78931539	    -10.56429760	    -59.46602809	    -24.56607240	     -0.14557499	     73.45799169	      0.00000000	      0.00000000	      0.00000000
      4.88000000	     93.99002893	     19.94355602	    -94.03692107	      0.35661083	      0.29003885	      1.01727928	     -0.00993838	    -13.51086253	      0.71279757	    -54.26681170	    -33.76080198	     -1.74545602	    -25.17324631	     -9.65362423	    -15.78747101	    -10.56537238	    -59.46732664	    -24.56394449	     -0.14557499	     73.45799169	      0.00000000	      0.00000000	      0.00000000
      4.89000000	     93.99113133	     19.93947346	    -94.03956202	      0.35661295	      0.29002827	      1.01727662	     -0.01311606	    -13.51547875	      0.71446349	    -54.28217235	    -33.77425163	     -1.74545602	    -25.17324631	     -9.65735610	    -15.78582226	    -10.56526594	    -59.46891293	    -24.56402986	     -0.14557499	     73.45799169	      0.00000000	      0.00000000	      0.00000000
